# xmcd
#
# Track frame offsets: 
#        150
#        17018
#        32838
#        54789
#        76351
#        105729
#        124801
#        145297
#        155986
#        173809
#        192144
#        211482
#        238851
#
# Disc length: 3413 seconds
#
# Revision: 0
# Processed by: cddbd v1.5.2PL0 Copyright (c) Steve Scherf et al.
# Submitted via: ExactAudioCopy v0.95b4
#
DISCID=b20d530d
DTITLE=Various Artist - KM5 Ibiza 2007
DYEAR=2007
DGENRE=Eclectic and Electric Sounds
TTITLE0=Fabergé - Hyde
TTITLE1=Will.I.Am feat. Terry Dexter - Lay Me Down
TTITLE2=Den Hétrix and Prinz - Butterfly Lady (Den Hétrix Easy Cocktail 
TTITLE2=Mix)
TTITLE3=Marc Moulin - I Am You
TTITLE4=Water feat. Fay Lovsky - Hold Me
TTITLE5=Billie Holiday - Speak Low (Bent Remix)
TTITLE6=Gabin feat. Dee Dee Bridgewater - Into My Soul
TTITLE7=Mr. V - Welcome Home Intro
TTITLE8=Leki feat. Yazzmin - No Matter What
TTITLE9=Buscemi - Nothing To Worry About
TTITLE10=Deep Collective - Components
TTITLE11=Axelle Red - Fruit Défendu
TTITLE12=Daan - The Player
EXTD=
EXTT0=
EXTT1=
EXTT2=
EXTT3=
EXTT4=
EXTT5=
EXTT6=
EXTT7=
EXTT8=
EXTT9=
EXTT10=
EXTT11=
EXTT12=
PLAYORDER=
